<svg width="24" height="24" viewBox="0 0 24 24" fill="none" xmlns="http://www.w3.org/2000/svg">
<g id="Plus">
<path id="Vector" d="M21 11.9999C21 12.1989 20.921 12.3896 20.7803 12.5303C20.6397 12.6709 20.4489 12.7499 20.25 12.7499H12.75V20.2499C12.75 20.4489 12.671 20.6396 12.5303 20.7803C12.3897 20.9209 12.1989 20.9999 12 20.9999C11.8011 20.9999 11.6103 20.9209 11.4697 20.7803C11.329 20.6396 11.25 20.4489 11.25 20.2499V12.7499H3.75C3.55109 12.7499 3.36032 12.6709 3.21967 12.5303C3.07902 12.3896 3 12.1989 3 11.9999C3 11.801 3.07902 11.6103 3.21967 11.4696C3.36032 11.329 3.55109 11.2499 3.75 11.2499H11.25V3.74994C11.25 3.55103 11.329 3.36026 11.4697 3.21961C11.6103 3.07896 11.8011 2.99994 12 2.99994C12.1989 2.99994 12.3897 3.07896 12.5303 3.21961C12.671 3.36026 12.75 3.55103 12.75 3.74994V11.2499H20.25C20.4489 11.2499 20.6397 11.329 20.7803 11.4696C20.921 11.6103 21 11.801 21 11.9999Z" fill="black"/>
</g>
</svg>


